# xmcd
#
# Track frame offsets:
#   150
#   11848
#   24108
#   39690
#   53618
#   66676
#   78970
#   92757
#   105394
#   117299
#   130013
#   143172
#   156958
#   173728
#   185101
#   201221
#   216741
#
# Disc length: 3018 seconds
#
# Revision: 0
# Processed by: cddbd v1.5.2PL0 Copyright (c) Steve Scherf et al.
# Submitted via: uFREEDB ActiveX Control 1.5
#
DISCID=f10bc811
DTITLE=VELHO MILONGUEIRO - MEGA SUCESSOS
DYEAR=1900
DGENRE=COUNTRY
TTITLE0=CAVALEIRO DO ESPAÇO
TTITLE1=DO JEITO QUE SOU
TTITLE2=A GARAGEM
TTITLE3=CAMPEANDO A SAUDADE
TTITLE4=CANTOR DA MATA
TTITLE5=DEFEITOS QUE NÃO TENHO
TTITLE6=CHAPÉU DE VACA
TTITLE7=O MEXE-MEXE DA MENINA
TTITLE8=CABEÇA DURA
TTITLE9=MEU LAÇO
TTITLE10=COISAS QUE DEUS ME DEU
TTITLE11=MULHER GASTADEIRA
TTITLE12=MANDA BRASA
TTITLE13=PODE CHEGAR
TTITLE14=SONHANDO COM AS MENINAS
TTITLE15=LEGENDÁRIA OITO SOCO
TTITLE16=PENDURANDO AS CHUTEIRAS
EXTD=
EXTT0=
EXTT1=
EXTT2=
EXTT3=
EXTT4=
EXTT5=
EXTT6=
EXTT7=
EXTT8=
EXTT9=
EXTT10=
EXTT11=
EXTT12=
EXTT13=
EXTT14=
EXTT15=
EXTT16=
PLAYORDER=
